<svg width="666" height="666" xmlns="http://www.w3.org/2000/svg" xmlns:xlink="http://www.w3.org/1999/xlink" xml:space="preserve" overflow="hidden"><defs><clipPath id="clip0"><rect x="307" y="27" width="666" height="666"/></clipPath></defs><g clip-path="url(#clip0)" transform="translate(-307 -27)"><path d="M0 375.225C-0.73563 191.439 147.656 41.855 331.442 41.1194 515.227 40.3838 664.812 188.775 665.547 372.561 665.551 373.449 665.551 374.337 665.547 375.225 664.812 559.011 515.227 707.402 331.442 706.667 148.695 705.935 0.731465 557.971-5.22445e-06 375.225Z" fill="#344979" fill-rule="evenodd" transform="matrix(1 0 0 1.0012 307.223 -13.0143)"/><path d="M0 429.392C0.475954 275.522 125.598 151.172 279.468 151.648 432.666 152.121 556.739 276.195 557.213 429.392 557.689 583.262 433.338 708.385 279.468 708.861 125.598 709.336 0.475952 584.986-2.21419e-06 431.116-0.00177935 430.541-0.00177935 429.967-2.21419e-06 429.392Z" fill="#FFFFFF" fill-rule="evenodd" transform="matrix(1 0 0 1.0012 361.392 -67.248)"/><path d="M0 482.68C-3.7882e-14 358.24 100.879 257.361 225.319 257.361 349.759 257.361 450.638 358.24 450.638 482.68 450.638 607.12 349.759 707.999 225.319 707.999 100.879 707.999 4.06755e-06 607.12 4.06755e-06 482.68Z" fill="#344979" fill-rule="evenodd" transform="matrix(1 0 0 1.0012 414.682 -120.603)"/><path d="M0 540.726C-0.368794 448.343 74.223 373.153 166.605 372.785 258.988 372.416 334.178 447.008 334.546 539.39 334.548 539.835 334.548 540.28 334.546 540.726 334.915 633.108 260.323 708.298 167.941 708.666 75.5585 709.035 0.368793 634.443-7.32159e-07 542.061-0.00177787 541.616-0.00177787 541.171-7.32159e-07 540.725Z" fill="#FFFFFF" fill-rule="evenodd" transform="matrix(1 0 0 1.0012 472.58 -178.862)"/><path d="M0 593.746C-3.7882e-14 530.647 51.1525 479.494 114.252 479.494 177.352 479.494 228.504 530.647 228.504 593.746 228.504 656.846 177.352 707.999 114.252 707.999 51.1525 707.999 1.62702e-06 656.846 1.62702e-06 593.746Z" fill="#344979" fill-rule="evenodd" transform="matrix(1 0 0 1.0012 525.751 -231.804)"/><path d="M670.164 392.859 814.174 537.041" stroke="#FFFFFF" stroke-width="53.3462" stroke-linecap="round" stroke-linejoin="round" stroke-miterlimit="3" fill="none" fill-rule="evenodd"/><path d="M0 708.341 237.309 708.341" stroke="#FFFFFF" stroke-width="53.34" stroke-linecap="round" stroke-linejoin="round" stroke-miterlimit="3" fill="none" fill-rule="evenodd" transform="matrix(-0.772393 0.635145 -0.634383 -0.77332 1245.38 1108.53)"/></g></svg>