<svg width="666" height="666" xmlns="http://www.w3.org/2000/svg" xmlns:xlink="http://www.w3.org/1999/xlink" xml:space="preserve" overflow="hidden"><defs><clipPath id="clip0"><rect x="307" y="27" width="666" height="666"/></clipPath></defs><g clip-path="url(#clip0)" transform="translate(-307 -27)"><path d="M0 375.225C-0.73563 191.439 147.656 41.8551 331.442 41.1193 515.228 40.3837 664.812 188.775 665.547 372.561 665.551 373.45 665.551 374.337 665.547 375.225 664.812 559.011 515.228 707.403 331.442 706.667 148.696 705.935 0.731465 557.971-5.22445e-06 375.225Z" fill="#344979" fill-rule="evenodd" transform="matrix(1 0 0 1.00094 307.223 -13.1482)"/><path d="M0 429.392C0.475954 275.522 125.598 151.171 279.469 151.648 432.666 152.121 556.738 276.195 557.213 429.392 557.689 583.262 433.339 708.384 279.469 708.861 125.598 709.337 0.475953 584.986-2.21419e-06 431.116-0.00177935 430.541-0.00177935 429.967-2.21419e-06 429.392Z" fill="#FFFFFF" fill-rule="evenodd" transform="matrix(1 0 0 1.00094 361.392 -67.3681)"/><path d="M0 482.68C-3.7882e-14 358.239 100.879 257.361 225.319 257.361 349.76 257.361 450.638 358.239 450.638 482.68 450.638 607.12 349.76 707.999 225.319 707.999 100.879 707.999 4.06755e-06 607.12 4.06755e-06 482.68Z" fill="#344979" fill-rule="evenodd" transform="matrix(1 0 0 1.00094 414.682 -120.709)"/><path d="M0 540.726C-0.368794 448.343 74.223 373.154 166.605 372.785 258.988 372.415 334.177 447.007 334.546 539.39 334.548 539.835 334.548 540.28 334.546 540.726 334.916 633.108 260.324 708.297 167.941 708.666 75.5586 709.036 0.368793 634.444-7.32159e-07 542.061-0.00177787 541.616-0.00177787 541.171-7.32159e-07 540.726Z" fill="#FFFFFF" fill-rule="evenodd" transform="matrix(1 0 0 1.00094 472.58 -178.953)"/><path d="M0 593.746C-3.7882e-14 530.646 51.1525 479.494 114.252 479.494 177.352 479.494 228.504 530.646 228.504 593.746 228.504 656.846 177.352 707.999 114.252 707.999 51.1525 707.999 1.62701e-06 656.846 1.62701e-06 593.746Z" fill="#344979" fill-rule="evenodd" transform="matrix(1 0 0 1.00094 525.751 -231.883)"/><path d="M0 708.043 209.551 708.043" stroke="#FFFFFF" stroke-width="52.9843" stroke-linecap="round" stroke-linejoin="round" stroke-miterlimit="3" fill="none" fill-rule="evenodd" transform="matrix(0.966249 0.257608 -0.257365 0.967162 785.182 -186.353)"/><path d="M0 708.285 257.798 708.285" stroke="#FFFFFF" stroke-width="53.0024" stroke-linecap="round" stroke-linejoin="round" stroke-miterlimit="3" fill="none" fill-rule="evenodd" transform="matrix(-0.755547 0.655094 -0.654476 -0.756261 1265.56 1091.23)"/></g></svg>